<?xml version="1.0" encoding="utf-8" standalone="yes"?>
<!DOCTYPE svg PUBLIC "-//W3C//DTD SVG 1.1//EN" "http://www.w3.org/Graphics/SVG/1.1/DTD/svg11.dtd">
<svg width="722" height="542" viewBox="0 0 722 542" style="fill:none;stroke:none;fill-rule:evenodd;clip-rule:evenodd;stroke-linecap:round;stroke-linejoin:round;stroke-miterlimit:1.5;" version="1.1" xmlns="http://www.w3.org/2000/svg" xmlns:xlink="http://www.w3.org/1999/xlink"><style class="text-font-style fontImports" data-font-family="Roboto">@import url('https://fonts.googleapis.com/css2?family=Roboto:wght@400;700&amp;display=block');</style><g id="items" style="isolation: isolate"><g id="blend" style="mix-blend-mode: normal"><g id="g-root-1.cu_sy_zog4dm5lgbnn-fill" data-item-order="-120523" transform="translate(188.1181640625, 110.998046875)"></g><g id="g-root-2.cu_sy_925kq25lgbno-fill" data-item-order="-120519" transform="translate(220.67578125, 195)"></g><g id="g-root-3.cu_sy_1hgz31m5lgbgl-fill" data-item-order="-120515" transform="translate(253.234375, 279)"></g><g id="g-root-4.cu_sy_hz1j565lgc9a-fill" data-item-order="-120511" transform="translate(285.79296875, 363)"></g><g id="g-root--1.line_sy_8dzqi5lgbgn-fill" data-item-order="-120462" transform="translate(183, 147.5)"></g><g id="g-root--1.line_1_sy_1ly1jca5lgcug-fill" data-item-order="-120458" transform="translate(183, 315.5)"></g><g id="g-root--1.line_2_sy_1hiuiay5lgagx-fill" data-item-order="-120454" transform="translate(363, 400)"></g><g id="g-root--1.line_3_sy_147dzxm5lgc1u-fill" data-item-order="-120450" transform="translate(411, 231.5)"></g><g id="g-root-tx_aimodeld_1q5qvca5lhpn0-fill" data-item-order="0" transform="translate(201, 39)"><g id="tx_aimodeld_1q5qvca5lhpn0-fill" stroke="none" fill="#484848"><g><text style="font: bold 20px Roboto, sans-serif; white-space: pre;" font-weight="bold" font-size="20px" font-family="Roboto, sans-serif"><tspan x="13.13" y="34" dominant-baseline="ideographic">AI Model Development Process</tspan></text></g></g></g><g id="g-root-tx_dataclea_4n57u5lhrm4-fill" data-item-order="0" transform="translate(39, 135)"><g id="tx_dataclea_4n57u5lhrm4-fill" stroke="none" fill="#1eabda"><g><text style="font: bold 20px Roboto, sans-serif; white-space: pre;" font-weight="bold" font-size="20px" font-family="Roboto, sans-serif"><tspan x="14.83" y="34" dominant-baseline="ideographic">Data Cleaning</tspan></text></g></g></g><g id="g-root-tx_removing_zlbqy25lhonc-fill" data-item-order="0" transform="translate(27, 171)"><g id="tx_removing_zlbqy25lhonc-fill" stroke="none" fill="#484848"><g><text style="font: 15px Roboto, sans-serif; white-space: pre;" font-size="15px" font-family="Roboto, sans-serif"><tspan x="17.05" y="28" dominant-baseline="ideographic">Removing noise and </tspan><tspan x="47.91" y="46" dominant-baseline="ideographic">inconsistencies</tspan></text></g></g></g><g id="g-root-tx_modeltra_1cy17hm5lhp8i-fill" data-item-order="0" transform="translate(519, 219)"><g id="tx_modeltra_1cy17hm5lhp8i-fill" stroke="none" fill="#3cc583"><g><text style="font: bold 20px Roboto, sans-serif; white-space: pre;" font-weight="bold" font-size="20px" font-family="Roboto, sans-serif"><tspan x="12" y="34" dominant-baseline="ideographic">Model Training</tspan></text></g></g></g><g id="g-root-tx_building_hsssa25lhoue-fill" data-item-order="0" transform="translate(519, 255)"><g id="tx_building_hsssa25lhoue-fill" stroke="none" fill="#484848"><g><text style="font: 15px Roboto, sans-serif; white-space: pre;" font-size="15px" font-family="Roboto, sans-serif"><tspan x="12" y="28" dominant-baseline="ideographic">Building the model with </tspan><tspan x="12" y="46" dominant-baseline="ideographic">data</tspan></text></g></g></g><g id="g-root-tx_hyperpar_1449mi25lhp1h-fill" data-item-order="0" transform="translate(15, 279)"><g id="tx_hyperpar_1449mi25lhp1h-fill" stroke="none" fill="#92bd39"><g><text style="font: bold 20px Roboto, sans-serif; white-space: pre;" font-weight="bold" font-size="20px" font-family="Roboto, sans-serif"><tspan x="17.76" y="34" dominant-baseline="ideographic">Hyperparameter </tspan><tspan x="101.99" y="58" dominant-baseline="ideographic">Tuning</tspan></text></g></g></g><g id="g-root-tx_optimizi_4j7p625lhpfl-fill" data-item-order="0" transform="translate(39, 339)"><g id="tx_optimizi_4j7p625lhpfl-fill" stroke="none" fill="#484848"><g><text style="font: 15px Roboto, sans-serif; white-space: pre;" font-size="15px" font-family="Roboto, sans-serif"><tspan x="22.61" y="28" dominant-baseline="ideographic">Optimizing model </tspan><tspan x="63.67" y="46" dominant-baseline="ideographic">parameters</tspan></text></g></g></g><g id="g-root-tx_testing_mbqnu25lhp8j-fill" data-item-order="0" transform="translate(519, 387)"><g id="tx_testing_mbqnu25lhp8j-fill" stroke="none" fill="#e0cb15"><g><text style="font: bold 20px Roboto, sans-serif; white-space: pre;" font-weight="bold" font-size="20px" font-family="Roboto, sans-serif"><tspan x="12" y="34" dominant-baseline="ideographic">Testing</tspan></text></g></g></g><g id="g-root-tx_evaluati_1q7malm5lhonb-fill" data-item-order="0" transform="translate(519, 423)"><g id="tx_evaluati_1q7malm5lhonb-fill" stroke="none" fill="#484848"><g><text style="font: 15px Roboto, sans-serif; white-space: pre;" font-size="15px" font-family="Roboto, sans-serif"><tspan x="12" y="28" dominant-baseline="ideographic">Evaluating model </tspan><tspan x="12" y="46" dominant-baseline="ideographic">performance</tspan></text></g></g></g><g id="g-root-1.cu_sy_zog4dm5lgbnn-stroke" data-item-order="-120523" transform="translate(188.1181640625, 110.998046875)"><g id="1.cu_sy_zog4dm5lgbnn-stroke" fill="none" stroke-linecap="round" stroke-linejoin="round" stroke-miterlimit="4" stroke="#1eabda" stroke-width="2"><g><path d="M 10 10L 37.9072 82L 270.4672 82L 298.3744 10L 10 10ZM 298.373997 10L 270.466797 82L 284.114397 122.101L 315.297097 59.725L 298.373997 10ZM 270.467227 82L 37.907227 82L 58.220627 94L 265.815827 94L 275.379527 122.101L 284.114727 122.101L 270.467227 82Z"></path></g></g></g><g id="g-root-2.cu_sy_925kq25lgbno-stroke" data-item-order="-120519" transform="translate(220.67578125, 195)"><g id="2.cu_sy_925kq25lgbno-stroke" fill="none" stroke-linecap="round" stroke-linejoin="round" stroke-miterlimit="4" stroke="#3cc583" stroke-width="2"><g><path d="M 10 10L 37.9072 82L 205.3504 82L 233.2576 10L 10 10ZM 233.257786 10L 205.350586 82L 215.177686 110.8714L 246.359586 48.497L 233.257786 10ZM 205.350427 82L 37.907227 82L 58.210127 94L 200.699627 94L 206.441527 110.8714L 215.177527 110.8714L 205.350427 82Z"></path></g></g></g><g id="g-root-3.cu_sy_1hgz31m5lgbgl-stroke" data-item-order="-120515" transform="translate(253.234375, 279)"><g id="3.cu_sy_1hgz31m5lgbgl-stroke" fill="none" stroke-linecap="round" stroke-linejoin="round" stroke-miterlimit="4" stroke="#92bd39" stroke-width="2"><g><path d="M 10 10L 37.9072 82L 140.2336 82L 168.1408 10L 10 10ZM 168.141575 10L 140.234375 82L 146.239175 99.6442L 177.421875 37.2683L 168.141575 10ZM 140.233627 82L 37.907227 82L 58.208027 94L 135.582227 94L 137.503127 99.6442L 146.238427 99.6442L 140.233627 82Z"></path></g></g></g><g id="g-root-4.cu_sy_hz1j565lgc9a-stroke" data-item-order="-120511" transform="translate(285.79296875, 363)"><g id="4.cu_sy_hz1j565lgc9a-stroke" fill="none" stroke-linecap="round" stroke-linejoin="round" stroke-miterlimit="4" stroke="#e0cb15" stroke-width="2"><g><path d="M 10 10L 56.512 130L 103.024 10L 10 10ZM 103.023719 10L 56.511719 130L 108.482819 26.0403L 103.023719 10Z"></path></g></g></g><g id="g-root--1.line_sy_8dzqi5lgbgn-stroke" data-item-order="-120462" transform="translate(183, 147.5)"><g id="-1.line_sy_8dzqi5lgbgn-stroke" fill="none" stroke-linecap="round" stroke-linejoin="round" stroke-miterlimit="4" stroke="#484848" stroke-width="2"><g><path d="M 10 10L 44.01 10"></path><path d="M 38 16.5L 44.5 10L 38 3.5" stroke-dasharray="none"></path></g></g></g><g id="g-root--1.line_1_sy_1ly1jca5lgcug-stroke" data-item-order="-120458" transform="translate(183, 315.5)"><g id="-1.line_1_sy_1ly1jca5lgcug-stroke" fill="none" stroke-linecap="round" stroke-linejoin="round" stroke-miterlimit="4" stroke="#484848" stroke-width="2"><g><path d="M 10 10L 110.01 10"></path><path d="M 104 16.5L 110.5 10L 104 3.5" stroke-dasharray="none"></path></g></g></g><g id="g-root--1.line_2_sy_1hiuiay5lgagx-stroke" data-item-order="-120454" transform="translate(363, 400)"><g id="-1.line_2_sy_1hiuiay5lgagx-stroke" fill="none" stroke-linecap="round" stroke-linejoin="round" stroke-miterlimit="4" stroke="#484848" stroke-width="2"><g><path d="M 154 10L 12 10"></path><path d="M 18 3.5L 11.5 10L 18 16.5" stroke-dasharray="none"></path></g></g></g><g id="g-root--1.line_3_sy_147dzxm5lgc1u-stroke" data-item-order="-120450" transform="translate(411, 231.5)"><g id="-1.line_3_sy_147dzxm5lgc1u-stroke" fill="none" stroke-linecap="round" stroke-linejoin="round" stroke-miterlimit="4" stroke="#484848" stroke-width="2"><g><path d="M 106 10L 12 10"></path><path d="M 18 3.5L 11.5 10L 18 16.5" stroke-dasharray="none"></path></g></g></g><g id="g-root-tx_aimodeld_1q5qvca5lhpn0-stroke" data-item-order="0" transform="translate(201, 39)"></g><g id="g-root-tx_dataclea_4n57u5lhrm4-stroke" data-item-order="0" transform="translate(39, 135)"></g><g id="g-root-tx_removing_zlbqy25lhonc-stroke" data-item-order="0" transform="translate(27, 171)"></g><g id="g-root-tx_modeltra_1cy17hm5lhp8i-stroke" data-item-order="0" transform="translate(519, 219)"></g><g id="g-root-tx_building_hsssa25lhoue-stroke" data-item-order="0" transform="translate(519, 255)"></g><g id="g-root-tx_hyperpar_1449mi25lhp1h-stroke" data-item-order="0" transform="translate(15, 279)"></g><g id="g-root-tx_optimizi_4j7p625lhpfl-stroke" data-item-order="0" transform="translate(39, 339)"></g><g id="g-root-tx_testing_mbqnu25lhp8j-stroke" data-item-order="0" transform="translate(519, 387)"></g><g id="g-root-tx_evaluati_1q7malm5lhonb-stroke" data-item-order="0" transform="translate(519, 423)"></g></g></g></svg>