<?xml version="1.0" encoding="utf-8" standalone="yes"?>
<!DOCTYPE svg PUBLIC "-//W3C//DTD SVG 1.1//EN" "http://www.w3.org/Graphics/SVG/1.1/DTD/svg11.dtd">
<svg width="866" height="608" viewBox="0 0 866 608" style="fill:none;stroke:none;fill-rule:evenodd;clip-rule:evenodd;stroke-linecap:round;stroke-linejoin:round;stroke-miterlimit:1.5;" version="1.1" xmlns="http://www.w3.org/2000/svg" xmlns:xlink="http://www.w3.org/1999/xlink"><style class="text-font-style fontImports" data-font-family="Roboto">@import url('https://fonts.googleapis.com/css2?family=Roboto:wght@400;700&amp;display=block');</style><g id="items" style="isolation: isolate"><g id="blend" style="mix-blend-mode: normal"><g id="g-root-ro_1qegq5m4h5b7l-fill" data-item-order="-31320" transform="translate(303, 174)"><g id="ro_1qegq5m4h5b7l-fill" stroke="none" fill="#f5f5f5"><g><path d="M 34 10L 166 10C 166 10 190 10 190 34L 190 160C 190 160 190 184 166 184L 34 184C 34 184 10 184 10 160L 10 34C 10 34 10 10 34 10"></path></g></g></g><g id="g-root-ro_142dobu4hjd3g-fill" data-item-order="-14904" transform="translate(531, 273)"><g id="ro_142dobu4hjd3g-fill" stroke="none" fill="#fffbda"><g><path d="M 22 10L 274 10C 274 10 286 10 286 22L 286 52C 286 52 286 64 274 64L 22 64C 22 64 10 64 10 52L 10 22C 10 22 10 10 22 10"></path></g></g></g><g id="g-root-ro_1hhlap64hcah7-fill" data-item-order="-12960" transform="translate(15, 123)"><g id="ro_1hhlap64hcah7-fill" stroke="none" fill="#f4ffdc"><g><path d="M 22 10L 238 10C 238 10 250 10 250 22L 250 52C 250 52 250 64 238 64L 22 64C 22 64 10 64 10 52L 10 22C 10 22 10 10 22 10"></path></g></g></g><g id="g-root-ro_hznnmy4hawp7-fill" data-item-order="-12312" transform="translate(279, 423)"><g id="ro_hznnmy4hawp7-fill" stroke="none" fill="#ffeceb"><g><path d="M 22 10L 226 10C 226 10 238 10 238 22L 238 52C 238 52 238 64 226 64L 22 64C 22 64 10 64 10 52L 10 22C 10 22 10 10 22 10"></path></g></g></g><g id="g-root-ro_mfgwa24hksnb-fill" data-item-order="-11016" transform="translate(531, 123)"><g id="ro_mfgwa24hksnb-fill" stroke="none" fill="#faf0ff"><g><path d="M 22 10L 202 10C 202 10 214 10 214 22L 214 52C 214 52 214 64 202 64L 22 64C 22 64 10 64 10 52L 10 22C 10 22 10 10 22 10"></path></g></g></g><g id="g-root-ro_1cz9ze24hawaz-fill" data-item-order="-7128" transform="translate(123, 273)"><g id="ro_1cz9ze24hawaz-fill" stroke="none" fill="#ffebf7"><g><path d="M 22 10L 130 10C 130 10 142 10 142 22L 142 52C 142 52 142 64 130 64L 22 64C 22 64 10 64 10 52L 10 22C 10 22 10 10 22 10"></path></g></g></g><g id="g-root-tx_aimodeld_13yn6ga4hccng-fill" data-item-order="0" transform="translate(243, 39)"><g id="tx_aimodeld_13yn6ga4hccng-fill" stroke="none" fill="#484848"><g><text style="font: 25px Roboto, sans-serif; white-space: pre;" font-size="25px" font-family="Roboto, sans-serif"><tspan x="16.05" y="43" dominant-baseline="ideographic">AI Model Development Process</tspan></text></g></g></g><g id="g-root-tx_interpre_v48y224hcav9-fill" data-item-order="0" transform="translate(327, 525)"><g id="tx_interpre_v48y224hcav9-fill" stroke="none" fill="#484848"><g><text style="font: 20px Roboto, sans-serif; white-space: pre;" font-size="20px" font-family="Roboto, sans-serif"><tspan x="16.8" y="34" dominant-baseline="ideographic">Interpretation of Results</tspan></text></g></g></g><g id="g-root-cu_hx5xm24hax38-fill" data-item-order="0" transform="translate(255, 150)"></g><g id="g-root-tx_performa_hrjhii4hcaa1-fill" data-item-order="0" transform="translate(579, 375)"><g id="tx_performa_hrjhii4hcaa1-fill" stroke="none" fill="#484848"><g><text style="font: 20px Roboto, sans-serif; white-space: pre;" font-size="20px" font-family="Roboto, sans-serif"><tspan x="12.15" y="34" dominant-baseline="ideographic">Performance Metrics</tspan></text></g></g></g><g id="g-root-tx_dataclea_dju5ii4haxhg-fill" data-item-order="0" transform="translate(75, 189)"><g id="tx_dataclea_dju5ii4haxhg-fill" stroke="none" fill="#484848"><g><text style="font: 20px Roboto, sans-serif; white-space: pre;" font-size="20px" font-family="Roboto, sans-serif"><tspan x="14.03" y="34" dominant-baseline="ideographic">Data Cleaning</tspan></text></g></g></g><g id="g-root-cu_145ieei4haww3-fill" data-item-order="0" transform="translate(213, 177)"></g><g id="g-root-cu_hz1cve4haw3y-fill" data-item-order="0" transform="translate(213, 177)"></g><g id="g-root-tx_evaluati_1lqjhpm4hcav7-fill" data-item-order="0" transform="translate(39, 375)"><g id="tx_evaluati_1lqjhpm4hcav7-fill" stroke="none" fill="#484848"><g><text style="font: 20px Roboto, sans-serif; white-space: pre;" font-size="20px" font-family="Roboto, sans-serif"><tspan x="11.92" y="34" dominant-baseline="ideographic">Evaluation Metrics</tspan></text></g></g></g><g id="g-root-cu_1uuxbhm4hay2v-fill" data-item-order="0" transform="translate(303, 477)"></g><g id="g-root-tx_paramete_vcd46i4haxag-fill" data-item-order="0" transform="translate(579, 339)"><g id="tx_paramete_vcd46i4haxag-fill" stroke="none" fill="#484848"><g><text style="font: 20px Roboto, sans-serif; white-space: pre;" font-size="20px" font-family="Roboto, sans-serif"><tspan x="11.79" y="34" dominant-baseline="ideographic">Parameter Adjustment</tspan></text></g></g></g><g id="g-root-cu_93ecmi4haxog-fill" data-item-order="0" transform="translate(555, 177)"></g><g id="g-root-cu_1ly1d2i4hawp7-fill" data-item-order="0" transform="translate(555, 177)"></g><g id="g-root-cu_1hgcfoq4haygw-fill" data-item-order="0" transform="translate(393, 348)"></g><g id="g-root-cu_zrkbje4hawow-fill" data-item-order="0" transform="translate(555, 327)"></g><g id="g-root-cu_18mkup64haya5-fill" data-item-order="0" transform="translate(555, 327)"></g><g id="g-root-tx_algorith_1lynnu24haxae-fill" data-item-order="0" transform="translate(579, 189)"><g id="tx_algorith_1lynnu24haxae-fill" stroke="none" fill="#484848"><g><text style="font: 20px Roboto, sans-serif; white-space: pre;" font-size="20px" font-family="Roboto, sans-serif"><tspan x="12.73" y="34" dominant-baseline="ideographic">Algorithm Selection</tspan></text></g></g></g><g id="g-root-tx_datatran_9048a4havwl-fill" data-item-order="0" transform="translate(15, 225)"><g id="tx_datatran_9048a4havwl-fill" stroke="none" fill="#484848"><g><text style="font: 20px Roboto, sans-serif; white-space: pre;" font-size="20px" font-family="Roboto, sans-serif"><tspan x="14.38" y="34" dominant-baseline="ideographic">Data Transformation</tspan></text></g></g></g><g id="g-root-cu_959rvu4hawp1-fill" data-item-order="0" transform="translate(213, 327)"></g><g id="g-root-cu_mg3t624hay9u-fill" data-item-order="0" transform="translate(213, 327)"></g><g id="g-root-tx_testdata_9h0q4hccn6-fill" data-item-order="0" transform="translate(87, 339)"><g id="tx_testdata_9h0q4hccn6-fill" stroke="none" fill="#484848"><g><text style="font: 20px Roboto, sans-serif; white-space: pre;" font-size="20px" font-family="Roboto, sans-serif"><tspan x="13.85" y="34" dominant-baseline="ideographic">Test Dataset</tspan></text></g></g></g><g id="g-root-cu_6ie7e4hawaq-fill" data-item-order="0" transform="translate(483, 290)"></g><g id="g-root-tx_modeltra_18ntmju4havpj-fill" data-item-order="0" transform="translate(579, 225)"><g id="tx_modeltra_18ntmju4havpj-fill" stroke="none" fill="#484848"><g><text style="font: 20px Roboto, sans-serif; white-space: pre;" font-size="20px" font-family="Roboto, sans-serif"><tspan x="16.72" y="34" dominant-baseline="ideographic">Model Training Techniques</tspan></text></g></g></g><g id="g-root-cu_1lw5xt64haxol-fill" data-item-order="0" transform="translate(255, 290)"></g><g id="g-root-cu_1ha3otm4hcb2i-fill" data-item-order="0" transform="translate(303, 477)"></g><g id="g-root-tx_chartsan_18f2zca4hccg4-fill" data-item-order="0" transform="translate(327, 489)"><g id="tx_chartsan_18f2zca4hccg4-fill" stroke="none" fill="#484848"><g><text style="font: 20px Roboto, sans-serif; white-space: pre;" font-size="20px" font-family="Roboto, sans-serif"><tspan x="17.19" y="34" dominant-baseline="ideographic">Charts and Graphs</tspan></text></g></g></g><g id="g-root-cu_4lpf8q4hayo7-fill" data-item-order="0" transform="translate(483, 150)"></g><g id="g-root-1_4myy24haxaa-fill" data-item-order="1000000000" transform="translate(213, 285)"></g><g id="g-root-tx_testing_hvaicq4hay2x-fill" data-item-order="1000000000" transform="translate(135, 288)"><g id="tx_testing_hvaicq4hay2x-fill" stroke="none" fill="#de58a9"><g><text style="font: 20px Roboto, sans-serif; white-space: pre;" font-size="20px" font-family="Roboto, sans-serif"><tspan x="13.21" y="34" dominant-baseline="ideographic">Testing</tspan></text></g></g></g><g id="g-root-tx_aimodeld_zqar8q4h5c7b-fill" data-item-order="1000000000" transform="translate(327, 252)"><g id="tx_aimodeld_zqar8q4h5c7b-fill" stroke="none" fill="#969696"><g><text style="font: 20px Roboto, sans-serif; white-space: pre;" font-size="20px" font-family="Roboto, sans-serif"><tspan x="35.22" y="34" dominant-baseline="ideographic">AI Model </tspan><tspan x="16.24" y="58" dominant-baseline="ideographic">Development </tspan><tspan x="38.59" y="82" dominant-baseline="ideographic">Process</tspan></text></g></g></g><g id="g-root-opti_1hdu6p64hjbij-fill" data-item-order="1000000000" transform="translate(543, 285)"></g><g id="g-root-tx_hyperpar_1uoo7ze4hjd3e-fill" data-item-order="1000000000" transform="translate(579, 288)"><g id="tx_hyperpar_1uoo7ze4hjd3e-fill" stroke="none" fill="#e0cb15"><g><text style="font: 20px Roboto, sans-serif; white-space: pre;" font-size="20px" font-family="Roboto, sans-serif"><tspan x="13.71" y="34" dominant-baseline="ideographic">Hyperparameter Tuning</tspan></text></g></g></g><g id="g-root-spar_9407l64h5c7c-fill" data-item-order="1000000000" transform="translate(369, 198)"></g><g id="g-root-tx_modeltra_1qd7yay4hkr2d-fill" data-item-order="1000000000" transform="translate(579, 138)"><g id="tx_modeltra_1qd7yay4hkr2d-fill" stroke="none" fill="#ba5de5"><g><text style="font: 20px Roboto, sans-serif; white-space: pre;" font-size="20px" font-family="Roboto, sans-serif"><tspan x="16.15" y="34" dominant-baseline="ideographic">Model Training</tspan></text></g></g></g><g id="g-root-desk_1464p624haxhe-fill" data-item-order="1000000000" transform="translate(291, 435)"></g><g id="g-root-tx_datavisu_1usf8tm4haxhd-fill" data-item-order="1000000000" transform="translate(327, 438)"><g id="tx_datavisu_1usf8tm4haxhd-fill" stroke="none" fill="#e55753"><g><text style="font: 20px Roboto, sans-serif; white-space: pre;" font-size="20px" font-family="Roboto, sans-serif"><tspan x="13.7" y="34" dominant-baseline="ideographic">Data Visualization</tspan></text></g></g></g><g id="g-root-pare_zqxene4hkr2e-fill" data-item-order="1000000000" transform="translate(543, 135)"></g><g id="g-root-stac_4mya964hcbgi-fill" data-item-order="1000000000" transform="translate(213, 135)"></g><g id="g-root-tx_dataprep_v98twq4hcbgh-fill" data-item-order="1000000000" transform="translate(27, 138)"><g id="tx_dataprep_v98twq4hcbgh-fill" stroke="none" fill="#92bd39"><g><text style="font: 20px Roboto, sans-serif; white-space: pre;" font-size="20px" font-family="Roboto, sans-serif"><tspan x="12.86" y="34" dominant-baseline="ideographic">Data Preprocessing</tspan></text></g></g></g><g id="g-root-ro_1qegq5m4h5b7l-stroke" data-item-order="-31320" transform="translate(303, 174)"><g id="ro_1qegq5m4h5b7l-stroke" fill="none" stroke-linecap="round" stroke-linejoin="round" stroke-miterlimit="4" stroke="#484848" stroke-width="2"><g><path d="M 34 10L 166 10C 166 10 190 10 190 34L 190 160C 190 160 190 184 166 184L 34 184C 34 184 10 184 10 160L 10 34C 10 34 10 10 34 10"></path></g></g></g><g id="g-root-ro_142dobu4hjd3g-stroke" data-item-order="-14904" transform="translate(531, 273)"><g id="ro_142dobu4hjd3g-stroke" fill="none" stroke-linecap="round" stroke-linejoin="round" stroke-miterlimit="4" stroke="#e0cb15" stroke-width="2"><g><path d="M 22 10L 274 10C 274 10 286 10 286 22L 286 52C 286 52 286 64 274 64L 22 64C 22 64 10 64 10 52L 10 22C 10 22 10 10 22 10"></path></g></g></g><g id="g-root-ro_1hhlap64hcah7-stroke" data-item-order="-12960" transform="translate(15, 123)"><g id="ro_1hhlap64hcah7-stroke" fill="none" stroke-linecap="round" stroke-linejoin="round" stroke-miterlimit="4" stroke="#92bd39" stroke-width="2"><g><path d="M 22 10L 238 10C 238 10 250 10 250 22L 250 52C 250 52 250 64 238 64L 22 64C 22 64 10 64 10 52L 10 22C 10 22 10 10 22 10"></path></g></g></g><g id="g-root-ro_hznnmy4hawp7-stroke" data-item-order="-12312" transform="translate(279, 423)"><g id="ro_hznnmy4hawp7-stroke" fill="none" stroke-linecap="round" stroke-linejoin="round" stroke-miterlimit="4" stroke="#e55753" stroke-width="2"><g><path d="M 22 10L 226 10C 226 10 238 10 238 22L 238 52C 238 52 238 64 226 64L 22 64C 22 64 10 64 10 52L 10 22C 10 22 10 10 22 10"></path></g></g></g><g id="g-root-ro_mfgwa24hksnb-stroke" data-item-order="-11016" transform="translate(531, 123)"><g id="ro_mfgwa24hksnb-stroke" fill="none" stroke-linecap="round" stroke-linejoin="round" stroke-miterlimit="4" stroke="#ba5de5" stroke-width="2"><g><path d="M 22 10L 202 10C 202 10 214 10 214 22L 214 52C 214 52 214 64 202 64L 22 64C 22 64 10 64 10 52L 10 22C 10 22 10 10 22 10"></path></g></g></g><g id="g-root-ro_1cz9ze24hawaz-stroke" data-item-order="-7128" transform="translate(123, 273)"><g id="ro_1cz9ze24hawaz-stroke" fill="none" stroke-linecap="round" stroke-linejoin="round" stroke-miterlimit="4" stroke="#de58a9" stroke-width="2"><g><path d="M 22 10L 130 10C 130 10 142 10 142 22L 142 52C 142 52 142 64 130 64L 22 64C 22 64 10 64 10 52L 10 22C 10 22 10 10 22 10"></path></g></g></g><g id="g-root-tx_aimodeld_13yn6ga4hccng-stroke" data-item-order="0" transform="translate(243, 39)"></g><g id="g-root-tx_interpre_v48y224hcav9-stroke" data-item-order="0" transform="translate(327, 525)"></g><g id="g-root-cu_hx5xm24hax38-stroke" data-item-order="0" transform="translate(255, 150)"><g id="cu_hx5xm24hax38-stroke" fill="none" stroke-linecap="round" stroke-linejoin="round" stroke-miterlimit="4" stroke="#969696" stroke-width="2" stroke-dasharray="5.0, 7.0"><g><path d="M 58 92L 55 92L 54.9 92C 43.357247 92 33.999998 82.642751 33.999998 71.1L 34 71L 34 30.9C 33.999998 19.357248 24.64275 10 13.1 10L 13 10L 10 10"></path></g></g></g><g id="g-root-tx_performa_hrjhii4hcaa1-stroke" data-item-order="0" transform="translate(579, 375)"></g><g id="g-root-tx_dataclea_dju5ii4haxhg-stroke" data-item-order="0" transform="translate(75, 189)"></g><g id="g-root-cu_145ieei4haww3-stroke" data-item-order="0" transform="translate(213, 177)"><g id="cu_145ieei4haww3-stroke" fill="none" stroke-linecap="round" stroke-linejoin="round" stroke-miterlimit="4" stroke="#969696" stroke-width="2" stroke-dasharray="5.0, 7.0"><g><path d="M 28 10L 28 22L 28 34L 19 34L 10 34"></path></g></g></g><g id="g-root-cu_hz1cve4haw3y-stroke" data-item-order="0" transform="translate(213, 177)"><g id="cu_hz1cve4haw3y-stroke" fill="none" stroke-linecap="round" stroke-linejoin="round" stroke-miterlimit="4" stroke="#969696" stroke-width="2" stroke-dasharray="5.0, 7.0"><g><path d="M 28 10L 28 17.5L 28 58C 27.999999 64.627415 22.627416 69.999998 16 69.999998L 15.9 70L 10 70"></path></g></g></g><g id="g-root-tx_evaluati_1lqjhpm4hcav7-stroke" data-item-order="0" transform="translate(39, 375)"></g><g id="g-root-cu_1uuxbhm4hay2v-stroke" data-item-order="0" transform="translate(303, 477)"><g id="cu_1uuxbhm4hay2v-stroke" fill="none" stroke-linecap="round" stroke-linejoin="round" stroke-miterlimit="4" stroke="#969696" stroke-width="2" stroke-dasharray="5.0, 7.0"><g><path d="M 10 10L 10 22L 10 34L 19 34L 28 34"></path></g></g></g><g id="g-root-tx_paramete_vcd46i4haxag-stroke" data-item-order="0" transform="translate(579, 339)"></g><g id="g-root-cu_93ecmi4haxog-stroke" data-item-order="0" transform="translate(555, 177)"><g id="cu_93ecmi4haxog-stroke" fill="none" stroke-linecap="round" stroke-linejoin="round" stroke-miterlimit="4" stroke="#969696" stroke-width="2" stroke-dasharray="5.0, 7.0"><g><path d="M 10 10L 10 22L 10 34L 19 34L 28 34"></path></g></g></g><g id="g-root-cu_1ly1d2i4hawp7-stroke" data-item-order="0" transform="translate(555, 177)"><g id="cu_1ly1d2i4hawp7-stroke" fill="none" stroke-linecap="round" stroke-linejoin="round" stroke-miterlimit="4" stroke="#969696" stroke-width="2" stroke-dasharray="5.0, 7.0"><g><path d="M 10 10L 10 17.5L 10 58C 10.000002 64.627417 15.372585 70 22.000002 69.999999L 22.1 70L 28 70"></path></g></g></g><g id="g-root-cu_1hgcfoq4haygw-stroke" data-item-order="0" transform="translate(393, 348)"><g id="cu_1hgcfoq4haygw-stroke" fill="none" stroke-linecap="round" stroke-linejoin="round" stroke-miterlimit="4" stroke="#969696" stroke-width="2" stroke-dasharray="5.0, 7.0"><g><path d="M 10 10L 10 47.5L 10 85"></path></g></g></g><g id="g-root-cu_zrkbje4hawow-stroke" data-item-order="0" transform="translate(555, 327)"><g id="cu_zrkbje4hawow-stroke" fill="none" stroke-linecap="round" stroke-linejoin="round" stroke-miterlimit="4" stroke="#969696" stroke-width="2" stroke-dasharray="5.0, 7.0"><g><path d="M 10 10L 10 17.5L 10 58C 10.000002 64.627417 15.372585 70 22.000002 69.999999L 22.1 70L 28 70"></path></g></g></g><g id="g-root-cu_18mkup64haya5-stroke" data-item-order="0" transform="translate(555, 327)"><g id="cu_18mkup64haya5-stroke" fill="none" stroke-linecap="round" stroke-linejoin="round" stroke-miterlimit="4" stroke="#969696" stroke-width="2" stroke-dasharray="5.0, 7.0"><g><path d="M 10 10L 10 22L 10 34L 19 34L 28 34"></path></g></g></g><g id="g-root-tx_algorith_1lynnu24haxae-stroke" data-item-order="0" transform="translate(579, 189)"></g><g id="g-root-tx_datatran_9048a4havwl-stroke" data-item-order="0" transform="translate(15, 225)"></g><g id="g-root-cu_959rvu4hawp1-stroke" data-item-order="0" transform="translate(213, 327)"><g id="cu_959rvu4hawp1-stroke" fill="none" stroke-linecap="round" stroke-linejoin="round" stroke-miterlimit="4" stroke="#969696" stroke-width="2" stroke-dasharray="5.0, 7.0"><g><path d="M 28 10L 28 17.5L 28 58C 27.999999 64.627415 22.627416 69.999998 16 69.999998L 15.9 70L 10 70"></path></g></g></g><g id="g-root-cu_mg3t624hay9u-stroke" data-item-order="0" transform="translate(213, 327)"><g id="cu_mg3t624hay9u-stroke" fill="none" stroke-linecap="round" stroke-linejoin="round" stroke-miterlimit="4" stroke="#969696" stroke-width="2" stroke-dasharray="5.0, 7.0"><g><path d="M 28 10L 28 22L 28 34L 19 34L 10 34"></path></g></g></g><g id="g-root-tx_testdata_9h0q4hccn6-stroke" data-item-order="0" transform="translate(87, 339)"></g><g id="g-root-cu_6ie7e4hawaq-stroke" data-item-order="0" transform="translate(483, 290)"><g id="cu_6ie7e4hawaq-stroke" fill="none" stroke-linecap="round" stroke-linejoin="round" stroke-miterlimit="4" stroke="#969696" stroke-width="2" stroke-dasharray="5.0, 7.0"><g><path d="M 10 10L 13 10L 13.1 10C 16.360602 10.01615 19.962923 10.453815 23.800001 11.3C 26.03452 11.745014 29.638043 13.052174 34 15.000001C 38.361958 16.947827 41.965481 18.254987 44.200001 18.700001C 48.03708 19.546186 51.639401 19.983851 54.900002 20.000001L 55 20L 58 20"></path></g></g></g><g id="g-root-tx_modeltra_18ntmju4havpj-stroke" data-item-order="0" transform="translate(579, 225)"></g><g id="g-root-cu_1lw5xt64haxol-stroke" data-item-order="0" transform="translate(255, 290)"><g id="cu_1lw5xt64haxol-stroke" fill="none" stroke-linecap="round" stroke-linejoin="round" stroke-miterlimit="4" stroke="#969696" stroke-width="2" stroke-dasharray="5.0, 7.0"><g><path d="M 58 10L 55 10L 54.9 10C 51.639401 10.016148 48.03708 10.453814 44.200002 11.299999C 41.965481 11.745013 38.361958 13.052173 34 14.999999C 29.638043 16.947825 26.03452 18.254985 23.8 18.699999C 19.962923 19.546185 16.360601 19.98385 13.1 20L 13 20L 10 20"></path></g></g></g><g id="g-root-cu_1ha3otm4hcb2i-stroke" data-item-order="0" transform="translate(303, 477)"><g id="cu_1ha3otm4hcb2i-stroke" fill="none" stroke-linecap="round" stroke-linejoin="round" stroke-miterlimit="4" stroke="#969696" stroke-width="2" stroke-dasharray="5.0, 7.0"><g><path d="M 10 10L 10 17.5L 10 58C 10.000002 64.627417 15.372585 70 22.000002 69.999999L 22.1 70L 28 70"></path></g></g></g><g id="g-root-tx_chartsan_18f2zca4hccg4-stroke" data-item-order="0" transform="translate(327, 489)"></g><g id="g-root-cu_4lpf8q4hayo7-stroke" data-item-order="0" transform="translate(483, 150)"><g id="cu_4lpf8q4hayo7-stroke" fill="none" stroke-linecap="round" stroke-linejoin="round" stroke-miterlimit="4" stroke="#969696" stroke-width="2" stroke-dasharray="5.0, 7.0"><g><path d="M 10 92L 13 92L 13.1 92C 24.642748 92.000003 33.999998 82.642755 33.999998 71.100003L 34 71L 34 30.9C 33.999999 19.357249 43.357248 10.000001 54.899999 10.000002L 55 10L 58 10"></path></g></g></g><g id="g-root-1_4myy24haxaa-stroke" data-item-order="1000000000" transform="translate(213, 285)"><g id="1_4myy24haxaa-stroke" fill="none" stroke-linecap="round" stroke-linejoin="round" stroke-miterlimit="4" stroke="#de58a9" stroke-width="2"><g><path d="M 15.357142 11.071428L 34.642857 11.071428C 34.642857 11.071428 36.785713 11.071428 36.785713 13.214286L 36.785713 36.785713C 36.785713 36.785713 36.785713 38.92857 34.642857 38.92857L 15.357142 38.92857C 15.357142 38.92857 13.214286 38.92857 13.214286 36.785713L 13.214286 13.214286C 13.214286 13.214286 13.214286 11.071428 15.357142 11.071428M 13.214286 21.785713L 36.785713 21.785713M 31.42857 16.428572L 29.285713 16.428572"></path></g></g></g><g id="g-root-tx_testing_hvaicq4hay2x-stroke" data-item-order="1000000000" transform="translate(135, 288)"></g><g id="g-root-tx_aimodeld_zqar8q4h5c7b-stroke" data-item-order="1000000000" transform="translate(327, 252)"></g><g id="g-root-opti_1hdu6p64hjbij-stroke" data-item-order="1000000000" transform="translate(543, 285)"><g id="opti_1hdu6p64hjbij-stroke" fill="none" stroke-linecap="round" stroke-linejoin="round" stroke-miterlimit="4" stroke="#e0cb15" stroke-width="2"><g><path d="M 25 21.487499L 14.1375 21.487499C 12.197633 21.487547 10.625086 23.060133 10.625086 25C 10.625086 26.939867 12.197633 28.512453 14.1375 28.512499L 21.487499 28.512501L 21.487499 35.862499C 21.487547 37.802368 23.060133 39.374916 25 39.374916C 26.939867 39.374916 28.512453 37.802368 28.512499 35.862499L 28.512501 25C 28.512499 23.060101 26.939899 21.487499 25 21.487499ZM 35.862499 10.625L 25 10.625C 23.060133 10.625048 21.487585 12.197633 21.487585 14.1375C 21.487585 16.077366 23.060133 17.649952 25 17.65L 32.349998 17.65L 32.349998 25C 32.349953 26.939934 33.922565 28.512585 35.862499 28.512585C 37.802433 28.512585 39.375046 26.939934 39.375 25L 39.375 14.1375C 39.375 12.197599 37.802399 10.625 35.862499 10.625ZM 10.625 25C 10.624952 26.939934 12.197566 28.512585 14.1375 28.512585C 16.077435 28.512585 17.650047 26.939934 17.65 25C 17.650047 23.060066 16.077435 21.487413 14.1375 21.487413C 12.197566 21.487413 10.624952 23.060066 10.625 25"></path></g></g></g><g id="g-root-tx_hyperpar_1uoo7ze4hjd3e-stroke" data-item-order="1000000000" transform="translate(579, 288)"></g><g id="g-root-spar_9407l64h5c7c-stroke" data-item-order="1000000000" transform="translate(369, 198)"><g id="spar_9407l64h5c7c-stroke" fill="none" stroke-linecap="round" stroke-linejoin="round" stroke-miterlimit="4" stroke="#969696" stroke-width="2"><g><path d="M 37.585999 21.4426C 42.210602 20.51292 45.933998 16.74424 46.8652 12C 47.7962 16.74424 51.518799 20.51292 56.143398 21.4426M 56.143398 21.448021C 51.518799 22.377701 47.795399 26.146379 46.864201 30.8906C 45.932999 26.146379 42.210602 22.377701 37.585999 21.448021M 31.9844 21.16378C 31.128599 21.03532 30.252399 20.96876 29.360359 20.96876C 19.704559 20.96876 11.857422 28.78672 11.857422 38.4716L 11.857422 38.500801C 11.857422 48.156601 19.6754 56.003799 29.360359 56.003799C 39.016197 56.003799 46.863201 48.185799 46.863201 38.500801C 46.863201 37.871799 46.8302 37.250401 46.765999 36.638599M 29.361219 20.96876C 25.4522 20.96876 22.2754 28.78672 22.2754 38.4716L 22.2754 38.500801C 22.2754 48.156601 25.440399 56.003799 29.361219 56.003799C 33.270203 56.003799 36.446999 48.185799 36.446999 38.500801C 36.446999 36.599602 36.325001 34.769199 36.0994 33.055M 11.857422 38.492203L 46.863602 38.492203"></path></g></g></g><g id="g-root-tx_modeltra_1qd7yay4hkr2d-stroke" data-item-order="1000000000" transform="translate(579, 138)"></g><g id="g-root-desk_1464p624haxhe-stroke" data-item-order="1000000000" transform="translate(291, 435)"><g id="desk_1464p624haxhe-stroke" fill="none" stroke-linecap="round" stroke-linejoin="round" stroke-miterlimit="4" stroke="#e55753" stroke-width="2"><g><path d="M 14.375 20.625C 14.375 23.041246 16.333755 25 18.75 25C 21.166246 25 23.125 23.041246 23.125 20.625C 23.125 18.208755 21.166246 16.25 18.75 16.25C 16.333755 16.25 14.375 18.208755 14.375 20.625M 18.75 16.25L 18.75 20.625L 23.125 20.625M 21.25 38.125C 22.382277 36.695297 23.038008 34.946686 23.125 33.125M 28.75 38.125C 27.617723 36.695297 26.961992 34.946686 26.875 33.125M 19.373751 38.125L 30.623751 38.125M 10.625 29.375L 39.375 29.375M 11.875 11.875L 38.125 11.875C 38.125 11.875 39.375 11.875 39.375 13.125L 39.375 31.875C 39.375 31.875 39.375 33.125 38.125 33.125L 11.875 33.125C 11.875 33.125 10.625 33.125 10.625 31.875L 10.625 13.125C 10.625 13.125 10.625 11.875 11.875 11.875M 26.875 18.75L 28.75 16.25L 32.5 19.375L 35.625 15.625M 34.375 25.625L 34.375 23.75M 31.875 25.625L 31.875 23.125M 29.375 25.625L 29.375 21.875M 26.875 25.625L 26.875 23.75"></path></g></g></g><g id="g-root-tx_datavisu_1usf8tm4haxhd-stroke" data-item-order="1000000000" transform="translate(327, 438)"></g><g id="g-root-pare_zqxene4hkr2e-stroke" data-item-order="1000000000" transform="translate(543, 135)"><g id="pare_zqxene4hkr2e-stroke" fill="none" stroke-linecap="round" stroke-linejoin="round" stroke-miterlimit="4" stroke="#ba5de5" stroke-width="2"><g><path d="M 19.042212 16.062475C 19.042212 17.937475 18.542212 19.56245 21.042212 19.56245C 23.54225 19.56245 24.04225 18.562511 23.04225 15.562512C 22.417213 13.687512 21.917212 11.5625 18.042213 11.5625C 15.042212 11.5625 14.042212 14.56245 14.042212 14.56245L 11.04221 15.562512C 11.04221 15.562512 9.917215 21.187513 15.042212 20.562513C 16.787863 26.697876 19.099174 30.335625 18.542212 37.6875L 22.54225 37.6875L 22.97975 35M 39.0625 25.562626C 39.1875 22.812626 36.8125 20.562588 34.0625 20.562588L 25.0625 20.562588C 23.8125 20.562588 23.0625 20.062588 22.6875 19.312588M 28.237499 27.437626C 28.237499 28.812626 28.362499 30.0625 30.112499 30.0625C 31.862499 30.0625 32.237503 28.6875 31.612501 26.6875C 31.237499 25.4375 30.862501 23.9375 28.237499 23.9375C 25.612499 23.9375 24.862501 26.0625 24.862501 26.0625L 22.737499 26.812626C 22.737499 26.812626 21.987488 30.687626 25.487501 30.312624C 26.346375 33.461998 26.492001 35.974373 27.23325 39.062622L 29.60825 39.062622L 30.23325 36.437626M 33.567249 33.687626C 33.567249 33.687626 33.442249 36.062626 35.817249 36.812626L 36.192249 39.062622L 38.692249 39.062622L 39.067249 36.3125C 38.317249 34.8125 38.692249 34.5625 38.817249 32.3125C 38.942249 30.6875 37.567249 29.4375 35.942249 29.4375L 31.572248 29.4375"></path></g></g></g><g id="g-root-stac_4mya964hcbgi-stroke" data-item-order="1000000000" transform="translate(213, 135)"><g id="stac_4mya964hcbgi-stroke" fill="none" stroke-linecap="round" stroke-linejoin="round" stroke-miterlimit="4" stroke="#92bd39" stroke-width="2"><g><path d="M 11.93125 20.42625L 30.227499 20.42625C 30.227499 20.42625 31.533749 20.42625 31.533749 21.7325L 31.533749 36.108749C 31.533749 36.108749 31.533749 37.415001 30.227499 37.415001L 11.93125 37.415001C 11.93125 37.415001 10.625 37.415001 10.625 36.108749L 10.625 21.7325C 10.625 21.7325 10.625 20.42625 11.93125 20.42625M 10.625 24.387501L 31.533749 24.387501M 10.625 32.970001L 31.533749 32.970001M 10.625 28.79125L 31.533749 28.79125M 20.42625 24.387501L 20.42625 37.415001M 25.98 24.387501L 25.98 37.415001M 15.8525 16.5L 34.147499 16.5C 34.49514 16.499998 34.828465 16.638437 35.073814 16.884724C 35.31916 17.13101 35.456329 17.464863 35.455002 17.8125L 35.455002 34.80125M 19.772499 12.585L 38.068748 12.585C 38.790661 12.584999 39.37569 13.170589 39.374996 13.8925L 39.375 30.875"></path></g></g></g><g id="g-root-tx_dataprep_v98twq4hcbgh-stroke" data-item-order="1000000000" transform="translate(27, 138)"></g></g></g></svg>